<svg width="12" height="13" viewBox="0 0 12 13" fill="none" xmlns="http://www.w3.org/2000/svg">
<path d="M0.32025 1.94525L1.2315 2.8565C2.07894 1.74705 3.28666 0.967763 4.64673 0.652775C6.00681 0.337788 7.43415 0.506813 8.68303 1.13075C9.93192 1.75469 10.9242 2.79451 11.4891 4.0712C12.054 5.34789 12.1561 6.78157 11.7779 8.12543C11.3997 9.4693 10.5648 10.6393 9.41691 11.4339C8.26907 12.2286 6.8801 12.5982 5.48911 12.4792C4.09812 12.3601 2.79214 11.7599 1.79601 10.7818C0.799868 9.80364 0.175893 8.50883 0.0315003 7.12025C0.016184 6.97176 0.0604818 6.82327 0.154648 6.70744C0.248815 6.59161 0.385137 6.51794 0.533625 6.50262C0.682113 6.4873 0.830604 6.5316 0.946431 6.62577C1.06226 6.71994 1.13593 6.85626 1.15125 7.00475C1.26949 8.13905 1.78168 9.19599 2.59868 9.99168C3.41568 10.7874 4.48578 11.2714 5.62281 11.3597C6.75984 11.4479 7.89181 11.1347 8.82178 10.4746C9.75176 9.81447 10.4209 8.84919 10.7127 7.74671C11.0045 6.64423 10.9006 5.47434 10.4189 4.44057C9.93734 3.40681 9.10853 2.57461 8.07675 2.08878C7.04497 1.60294 5.87551 1.49422 4.77184 1.78153C3.66818 2.06883 2.70018 2.73398 2.03625 3.66125L3.05475 4.67975C3.08104 4.70597 3.09895 4.73941 3.10621 4.77582C3.11348 4.81224 3.10976 4.84999 3.09554 4.88429C3.08133 4.9186 3.05724 4.94791 3.02635 4.9685C2.99545 4.9891 2.95913 5.00006 2.922 5H0.1875C0.137772 5 0.0900808 4.98024 0.0549178 4.94508C0.0197547 4.90992 3.00244e-07 4.86222 3.00244e-07 4.8125V2.078C-6.61367e-05 2.04086 0.0108945 2.00455 0.0314927 1.97365C0.0520909 1.94276 0.0813991 1.91867 0.115702 1.90445C0.150004 1.89023 0.187756 1.88652 0.224172 1.89378C0.260587 1.90104 0.294027 1.91896 0.32025 1.94525ZM5.8125 3.5C5.96168 3.5 6.10476 3.55926 6.21025 3.66475C6.31574 3.77024 6.375 3.91331 6.375 4.0625V6.3065L7.896 6.9155C8.03004 6.97393 8.13605 7.08225 8.19158 7.21752C8.24711 7.35278 8.24778 7.50435 8.19346 7.6401C8.13914 7.77586 8.03409 7.88512 7.90058 7.94475C7.76707 8.00437 7.61559 8.00966 7.47825 7.9595L5.60325 7.2095C5.49904 7.16762 5.40972 7.09555 5.34677 7.00253C5.28383 6.90952 5.25013 6.79981 5.25 6.6875V4.0625C5.25 3.91331 5.30926 3.77024 5.41475 3.66475C5.52024 3.55926 5.66332 3.5 5.8125 3.5Z" fill="white"/>
</svg>
