<svg width="25" height="24" viewBox="0 0 25 24" fill="none" xmlns="http://www.w3.org/2000/svg">
<path d="M0.595856 1.719C0.595856 0.7695 1.38486 0 2.35836 0H22.8334C23.8069 0 24.5959 0.7695 24.5959 1.719V22.281C24.5959 23.2305 23.8069 24 22.8334 24H2.35836C1.38486 24 0.595856 23.2305 0.595856 22.281V1.719ZM8.01036 20.091V9.2535H4.40886V20.091H8.01036ZM6.21036 7.773C7.46586 7.773 8.24736 6.942 8.24736 5.901C8.22486 4.8375 7.46736 4.029 6.23436 4.029C5.00136 4.029 4.19586 4.839 4.19586 5.901C4.19586 6.942 4.97736 7.773 6.18636 7.773H6.21036ZM13.5724 20.091V14.0385C13.5724 13.7145 13.5964 13.3905 13.6924 13.1595C13.9519 12.513 14.5444 11.8425 15.5404 11.8425C16.8439 11.8425 17.3644 12.8355 17.3644 14.2935V20.091H20.9659V13.875C20.9659 10.545 19.1899 8.997 16.8199 8.997C14.9089 8.997 14.0524 10.047 13.5724 10.7865V10.824H13.5484L13.5724 10.7865V9.2535H9.97236C10.0174 10.2705 9.97236 20.091 9.97236 20.091H13.5724Z" fill="white" fill-opacity="0.5"/>
</svg>
