<svg width="32" height="31" viewBox="0 0 32 31" fill="none" xmlns="http://www.w3.org/2000/svg">
<path d="M20.4759 30.4838L18.5696 29.9307C18.3696 29.8744 18.2571 29.6651 18.3134 29.4651L22.579 14.7713C22.6352 14.5713 22.8446 14.4588 23.0446 14.5151L24.9509 15.0682C25.1509 15.1244 25.2634 15.3338 25.2071 15.5338L20.9415 30.2276C20.8821 30.4276 20.6759 30.5432 20.4759 30.4838ZM16.9134 26.9776L18.2727 25.5276C18.4165 25.3744 18.4071 25.1307 18.2477 24.9901L15.4165 22.4994L18.2477 20.0088C18.4071 19.8682 18.4196 19.6244 18.2727 19.4713L16.9134 18.0213C16.7727 17.8713 16.5352 17.8619 16.3821 18.0057L11.879 22.2244C11.7196 22.3713 11.7196 22.6244 11.879 22.7713L16.3821 26.9932C16.5352 27.1369 16.7727 27.1307 16.9134 26.9776ZM27.1384 26.9963L31.6415 22.7744C31.8009 22.6276 31.8009 22.3744 31.6415 22.2276L27.1384 18.0026C26.9884 17.8619 26.7509 17.8682 26.6071 18.0182L25.2477 19.4682C25.104 19.6213 25.1134 19.8651 25.2727 20.0057L28.104 22.4994L25.2727 24.9901C25.1134 25.1307 25.1009 25.3744 25.2477 25.5276L26.6071 26.9776C26.7477 27.1307 26.9852 27.1369 27.1384 26.9963Z" fill="#1C2F45"/>
<path d="M6.48709 2.85146V11.5238C6.4869 12.5647 6.21026 13.587 5.68544 14.4859L4.24436 16.9567H10.2461C11.4882 14.5297 13.4631 12.5557 15.8906 11.3146V2.85146H17.066C17.3777 2.85146 17.6767 2.72762 17.8971 2.50719C18.1176 2.28675 18.2414 1.98777 18.2414 1.67603C18.2414 1.36428 18.1176 1.06531 17.8971 0.844872C17.6767 0.624435 17.3777 0.500595 17.066 0.500595H5.31165C4.99991 0.500595 4.70093 0.624435 4.4805 0.844872C4.26006 1.06531 4.13622 1.36428 4.13622 1.67603C4.13622 1.98777 4.26006 2.28675 4.4805 2.50719C4.70093 2.72762 4.99991 2.85146 5.31165 2.85146H6.48709ZM2.87145 19.3075H9.32458C9.00057 20.4549 8.83681 21.6416 8.83795 22.8338C8.83795 24.9496 9.34574 26.9478 10.2485 28.711H3.52499C2.90473 28.7108 2.2955 28.5469 1.75877 28.236C1.22205 27.9251 0.776832 27.4782 0.468041 26.9402C0.15925 26.4023 -0.00218663 25.7924 2.23689e-05 25.1721C0.00223137 24.5519 0.168007 23.9432 0.480622 23.4074L2.87145 19.3075Z" fill="#FF5003"/>
</svg>
